<svg width="14" height="14" viewBox="0 0 14 14" fill="none" xmlns="http://www.w3.org/2000/svg">
<g opacity="0.6">
<path d="M12.7022 8.87691C12.7022 9.90951 12.2919 10.8998 11.5617 11.6301C10.8314 12.3602 9.841 12.7705 8.8083 12.7705V6.82767C8.78155 6.3295 8.5647 5.86057 8.20248 5.51745C7.84032 5.17435 7.36027 4.9832 6.86133 4.9834H8.8083C9.841 4.9834 10.8314 5.3936 11.5617 6.12377C12.2919 6.85398 12.7022 7.84426 12.7022 8.87691Z" fill="white"/>
<path d="M8.80925 8.87652C8.80925 9.90917 8.39901 10.8995 7.66874 11.6297C6.93851 12.3598 5.94809 12.7701 4.91536 12.7701H1.02148C1.02148 11.7374 1.43173 10.7471 2.16198 10.0169C2.89222 9.28677 3.88264 8.87652 4.91536 8.87652H6.86232C7.36126 8.87672 7.84126 8.68557 8.20347 8.34248C8.56569 7.99934 8.78249 7.53039 8.80925 7.03223V8.87652Z" fill="white"/>
<path d="M6.86433 8.87639H4.91536C3.88264 8.87639 2.89222 8.4662 2.16198 7.73599C1.43173 7.00583 1.02148 6.0155 1.02148 4.98287C1.02148 3.95025 1.43173 2.95992 2.16198 2.22974C2.89222 1.49956 3.88264 1.08936 4.91536 1.08936V6.92965C4.91591 7.44612 5.12149 7.94129 5.48693 8.30632C5.85238 8.67135 6.34781 8.87639 6.86433 8.87639Z" fill="white"/>
<path d="M12.7018 1.08936C12.7018 2.12198 12.2916 3.11231 11.5613 3.84249C10.8311 4.57267 9.84064 4.98287 8.80795 4.98287H6.86303C6.34651 4.98287 5.85109 5.18791 5.48563 5.55293C5.12019 5.91797 4.91461 6.41312 4.91406 6.92965V4.98287C4.91406 3.95025 5.32431 2.95992 6.05455 2.22974C6.78478 1.49956 7.7752 1.08936 8.80795 1.08936H12.7018Z" fill="white"/>
</g>
</svg>
