<svg width="11" height="13" viewBox="0 0 11 13" fill="none" xmlns="http://www.w3.org/2000/svg">
<path d="M2.0575 10.6538H0.960815V9.42139H2.0575V10.6538ZM4.86121 1.96631H3.46179V3.57764H4.86121V4.81006H3.46179V9.42139H2.0575V4.81006H0.960815V3.57764H2.0575V1.9624H3.45691V0.73291H4.86121V1.96631Z" fill="black"/>
<path d="M6.26453 11.0327H9.07312V12.2651H4.86121V4.81006H6.26453V11.0327ZM9.07312 8.56689H10.4764V11.0327H9.07312V8.56689ZM10.4764 7.27588H9.07312V8.56689H7.66882V7.24463H9.07312V4.81006H10.4764V7.27588ZM9.07312 4.81006H6.26453V3.57666H9.07312V4.81006Z" fill="url(#paint0_linear_6467_322)"/>
<defs>
<linearGradient id="paint0_linear_6467_322" x1="4.86121" y1="3.57666" x2="10.4764" y2="12.2651" gradientUnits="userSpaceOnUse">
<stop stop-color="#0B64FF"/>
<stop offset="1"/>
</linearGradient>
</defs>
</svg>
