<svg width="44" height="10" viewBox="0 0 44 10" fill="none" xmlns="http://www.w3.org/2000/svg">
<path d="M11.4785 2.72339C13.3384 2.7234 14.7303 4.17477 14.7305 6.04663C14.7305 7.90663 13.3385 9.37084 11.4785 9.37085C9.61852 9.37085 8.22656 7.90663 8.22656 6.04663C8.2267 4.17476 9.6186 2.72339 11.4785 2.72339ZM5.80273 2.21948H2.05859V4.39136H5.21484V5.96265H2.05859V9.25073H0.234375V0.634521H5.80273V2.21948ZM7.87109 9.25073H6.19043V0.634521H7.87109V9.25073ZM16.9746 6.89917L18.1514 2.84351H19.7949L20.9346 6.89917L22.0146 2.84351H23.6592L21.8232 9.25073H20.167L18.9551 5.08667L17.7549 9.25073H16.0869L14.2627 2.84351H15.8828L16.9746 6.89917ZM11.4785 4.21069C10.6506 4.21069 9.94249 4.8588 9.94238 6.04663C9.94238 7.23463 10.6505 7.89526 11.4785 7.89526C12.3065 7.89526 13.0146 7.23462 13.0146 6.04663C13.0145 4.85881 12.3064 4.2107 11.4785 4.21069Z" fill="black"/>
<path d="M29.3145 2.20605H25.9785V7.67969H29.3145V9.25098H24.2471V0.634766H29.3145V2.20605ZM36.4883 2.84375H38.1562V4.26465H36.4883V9.23145H34.8203V4.26465H33.4004V9.25098H31.7324V2.84375H34.8203V0.948242H36.4883V2.84375ZM39.8242 5.33594H41.4922V6.40723H43.1602V9.25098H38.1562V7.8291H41.4922V6.75781H38.1562V4.26465H39.8242V5.33594ZM30.9824 7.67969H29.3145V5.72852H30.9824V7.67969ZM29.3145 5.72852H27.6465V4.15723H29.3145V5.72852ZM43.1602 4.26465H39.8242V2.84277H43.1602V4.26465ZM30.9824 4.15723H29.3145V2.20605H30.9824V4.15723ZM33.4004 2.37012H31.7324V0.948242H33.4004V2.37012Z" fill="url(#paint0_linear_6463_379)"/>
<defs>
<linearGradient id="paint0_linear_6463_379" x1="31.447" y1="0.634765" x2="33.8588" y2="9.20731" gradientUnits="userSpaceOnUse">
<stop stop-color="#0B64FF"/>
<stop offset="1"/>
</linearGradient>
</defs>
</svg>
