{
	"asset":{
		"generator":"Khronos glTF Blender I/O v4.5.48",
		"version":"2.0"
	},
	"scene":0,
	"scenes":[
		{
			"name":"Scene",
			"nodes":[
				0,
				1
			]
		}
	],
	"nodes":[
		{
			"mesh":0,
			"name":"logo 1",
			"translation":[
				0.8801027536392212,
				1.0281593799591064,
				-0.5146324634552002
			]
		},
		{
			"mesh":1,
			"name":"logo 2",
			"rotation":[
				0.006078663282096386,
				0.007300189230591059,
				-0.17407038807868958,
				0.9846873879432678
			],
			"translation":[
				1.6530230045318604,
				0.4601328670978546,
				-1.3366336822509766
			]
		}
	],
	"materials":[
		{
			"doubleSided":true,
			"name":"Material.001",
			"pbrMetallicRoughness":{
				"baseColorFactor":[
					0.800000011920929,
					0.800000011920929,
					0.800000011920929,
					1
				],
				"metallicFactor":0,
				"roughnessFactor":0.5
			}
		},
		{
			"doubleSided":true,
			"name":"Material.003",
			"pbrMetallicRoughness":{
				"baseColorFactor":[
					0,
					0,
					0.7952049970626831,
					1
				],
				"metallicFactor":0,
				"roughnessFactor":0.5
			}
		},
		{
			"doubleSided":true,
			"name":"Material.004",
			"pbrMetallicRoughness":{
				"baseColorFactor":[
					0.02315366081893444,
					0.024158034473657608,
					0.02315366081893444,
					1
				],
				"metallicFactor":0,
				"roughnessFactor":0.5
			}
		}
	],
	"meshes":[
		{
			"name":"Cube",
			"primitives":[
				{
					"attributes":{
						"POSITION":0,
						"NORMAL":1,
						"TEXCOORD_0":2
					},
					"indices":3,
					"material":0
				},
				{
					"attributes":{
						"POSITION":4,
						"NORMAL":5,
						"TEXCOORD_0":6
					},
					"indices":7,
					"material":1
				}
			]
		},
		{
			"name":"Cube.003",
			"primitives":[
				{
					"attributes":{
						"POSITION":8,
						"NORMAL":9,
						"TEXCOORD_0":10
					},
					"indices":3,
					"material":0
				},
				{
					"attributes":{
						"POSITION":11,
						"NORMAL":12,
						"TEXCOORD_0":13
					},
					"indices":7,
					"material":2
				}
			]
		}
	],
	"accessors":[
		{
			"bufferView":0,
			"componentType":5126,
			"count":193,
			"max":[
				0.8815538287162781,
				1.2831782102584839,
				0.355316698551178
			],
			"min":[
				-0.9474980235099792,
				-0.9330180883407593,
				0.21584615111351013
			],
			"type":"VEC3"
		},
		{
			"bufferView":1,
			"componentType":5126,
			"count":193,
			"type":"VEC3"
		},
		{
			"bufferView":2,
			"componentType":5126,
			"count":193,
			"type":"VEC2"
		},
		{
			"bufferView":3,
			"componentType":5123,
			"count":432,
			"type":"SCALAR"
		},
		{
			"bufferView":4,
			"componentType":5126,
			"count":994,
			"max":[
				1.471879005432129,
				1.6408495903015137,
				0.22404327988624573
			],
			"min":[
				-1.5887181758880615,
				-1.4197475910186768,
				-0.08851730823516846
			],
			"type":"VEC3"
		},
		{
			"bufferView":5,
			"componentType":5126,
			"count":994,
			"type":"VEC3"
		},
		{
			"bufferView":6,
			"componentType":5126,
			"count":994,
			"type":"VEC2"
		},
		{
			"bufferView":7,
			"componentType":5123,
			"count":5604,
			"type":"SCALAR"
		},
		{
			"bufferView":8,
			"componentType":5126,
			"count":193,
			"max":[
				0.8815538287162781,
				1.2831782102584839,
				0.355316698551178
			],
			"min":[
				-0.9474980235099792,
				-0.9330180883407593,
				0.21584615111351013
			],
			"type":"VEC3"
		},
		{
			"bufferView":9,
			"componentType":5126,
			"count":193,
			"type":"VEC3"
		},
		{
			"bufferView":10,
			"componentType":5126,
			"count":193,
			"type":"VEC2"
		},
		{
			"bufferView":11,
			"componentType":5126,
			"count":994,
			"max":[
				1.471879005432129,
				1.6408495903015137,
				0.22404327988624573
			],
			"min":[
				-1.5887181758880615,
				-1.4197475910186768,
				-0.08851730823516846
			],
			"type":"VEC3"
		},
		{
			"bufferView":12,
			"componentType":5126,
			"count":994,
			"type":"VEC3"
		},
		{
			"bufferView":13,
			"componentType":5126,
			"count":994,
			"type":"VEC2"
		}
	],
	"bufferViews":[
		{
			"buffer":0,
			"byteLength":2316,
			"byteOffset":0,
			"target":34962
		},
		{
			"buffer":0,
			"byteLength":2316,
			"byteOffset":2316,
			"target":34962
		},
		{
			"buffer":0,
			"byteLength":1544,
			"byteOffset":4632,
			"target":34962
		},
		{
			"buffer":0,
			"byteLength":864,
			"byteOffset":6176,
			"target":34963
		},
		{
			"buffer":0,
			"byteLength":11928,
			"byteOffset":7040,
			"target":34962
		},
		{
			"buffer":0,
			"byteLength":11928,
			"byteOffset":18968,
			"target":34962
		},
		{
			"buffer":0,
			"byteLength":7952,
			"byteOffset":30896,
			"target":34962
		},
		{
			"buffer":0,
			"byteLength":11208,
			"byteOffset":38848,
			"target":34963
		},
		{
			"buffer":0,
			"byteLength":2316,
			"byteOffset":50056,
			"target":34962
		},
		{
			"buffer":0,
			"byteLength":2316,
			"byteOffset":52372,
			"target":34962
		},
		{
			"buffer":0,
			"byteLength":1544,
			"byteOffset":54688,
			"target":34962
		},
		{
			"buffer":0,
			"byteLength":11928,
			"byteOffset":56232,
			"target":34962
		},
		{
			"buffer":0,
			"byteLength":11928,
			"byteOffset":68160,
			"target":34962
		},
		{
			"buffer":0,
			"byteLength":7952,
			"byteOffset":80088,
			"target":34962
		}
	],
	"buffers":[
		{
			"byteLength":88040,
			"uri":"FlowBitz%203d%20new.bin"
		}
	]
}
